<svg width="455" height="455" viewBox="0 0 455 455" fill="none" xmlns="http://www.w3.org/2000/svg">
<path d="M394 0H61C27.3106 0 0 27.3106 0 61V394C0 427.689 27.3106 455 61 455H394C427.689 455 455 427.689 455 394V61C455 27.3106 427.689 0 394 0Z" fill="#C4C4C4"/>
<path d="M373 412C392.882 412 409 395.882 409 376C409 356.118 392.882 340 373 340C353.118 340 337 356.118 337 376C337 395.882 353.118 412 373 412Z" fill="#D90037"/>
<path d="M373 263C392.882 263 409 246.882 409 227C409 207.118 392.882 191 373 191C353.118 191 337 207.118 337 227C337 246.882 353.118 263 373 263Z" fill="#D90037"/>
<path d="M84 263C103.882 263 120 246.882 120 227C120 207.118 103.882 191 84 191C64.1177 191 48 207.118 48 227C48 246.882 64.1177 263 84 263Z" fill="#D90037"/>
<path d="M373 113C392.882 113 409 96.8823 409 77C409 57.1177 392.882 41 373 41C353.118 41 337 57.1177 337 77C337 96.8823 353.118 113 373 113Z" fill="#D90037"/>
<path d="M84 412C103.882 412 120 395.882 120 376C120 356.118 103.882 340 84 340C64.1177 340 48 356.118 48 376C48 395.882 64.1177 412 84 412Z" fill="#D90037"/>
<path d="M84 113C103.882 113 120 96.8823 120 77C120 57.1177 103.882 41 84 41C64.1177 41 48 57.1177 48 77C48 96.8823 64.1177 113 84 113Z" fill="#D90037"/>
</svg>
